<svg width="19" height="18" viewBox="0 0 19 18" fill="none" xmlns="http://www.w3.org/2000/svg">
<path d="M17.5644 0L11.9648 5.59961L11.957 5.59375L11.3867 6.16406L14.2402 9.01758C16.4232 6.80658 18.2858 3.713 17.9648 0.5L17.5644 0ZM5.81831 0.015625C5.30407 0.0157115 4.79002 0.209895 4.40424 0.597656L1.57612 3.42578C0.803396 4.19866 0.804063 5.48187 1.57807 6.25391L1.58002 6.25586L3.4687 8.12305C4.62839 9.28274 6.53476 9.28518 7.69917 8.13281L17.5351 17.9707L18.9492 16.5566L9.11323 6.7207L9.12495 6.70898C10.2883 5.54562 10.2883 3.63016 9.12495 2.4668L9.12299 2.46484L7.23237 0.595703C6.84608 0.209411 6.33254 0.0155385 5.81831 0.015625ZM5.82026 2.01172L5.82221 2.01367L7.57221 3.74414C7.78006 3.95567 7.77892 4.23666 7.56831 4.44727C7.35631 4.65927 7.07327 4.65927 6.86127 4.44727L6.85151 4.45703L5.11323 2.71875L5.82026 2.01172ZM3.69917 4.13281L5.49213 5.92578C5.64774 6.12873 5.63915 6.37642 5.44721 6.56836C5.23591 6.77966 4.95195 6.77828 4.74018 6.56836L2.99213 4.83789L3.69917 4.13281ZM7.14448 10.4062L1.05659 16.4941L2.47065 17.9082L8.55854 11.8203L7.14448 10.4062Z" fill="#194068"/>
</svg>
