<svg width="20" height="18" viewBox="0 0 20 18" fill="none" xmlns="http://www.w3.org/2000/svg">
<path d="M8 0C7.47778 0 6.94539 0.191329 6.56836 0.568359C6.19133 0.94539 6 1.47778 6 2V3H3C1.35455 3 0 4.35455 0 6V11V16C0 17.1 0.9 18 2 18H18C19.1 18 20 17.1 20 16V11V6C20 4.35455 18.6455 3 17 3H14V2C14 1.47778 13.8087 0.94539 13.4316 0.568359C13.0546 0.191329 12.5222 0 12 0H8ZM8 2H12V3H8V2ZM3 5H17C17.5545 5 18 5.44545 18 6V11C18 11.5545 17.5545 12 17 12H3C2.44545 12 2 11.5545 2 11V6C2 5.44545 2.44545 5 3 5ZM10 9C9.73478 9 9.48043 9.10536 9.29289 9.29289C9.10536 9.48043 9 9.73478 9 10C9 10.2652 9.10536 10.5196 9.29289 10.7071C9.48043 10.8946 9.73478 11 10 11C10.2652 11 10.5196 10.8946 10.7071 10.7071C10.8946 10.5196 11 10.2652 11 10C11 9.73478 10.8946 9.48043 10.7071 9.29289C10.5196 9.10536 10.2652 9 10 9Z" fill="#194068"/>
</svg>
